# xmcd
#
# Track frame offsets: 
#        150
#        13716
#        26766
#        39123
#        53610
#        66581
#        81889
#        93986
#        108589
#        121355
#        134055
#        147370
#        159381
#        172525
#        185145
#        195688
#        208635
#        221474
#
# Disc length: 3136 seconds
#
# Revision: 0
# Processed by: cddbd v1.5.2PL0 Copyright (c) Steve Scherf et al.
# Submitted via: ExactAudioCopyFreeDBPlugin 1.0
#
DISCID=000c3e12
DTITLE=Ray Charles - The Chronological Ray Charles, 1953-1954 (Classic
DTITLE=s Blues and Rhythm Series)
DYEAR=2005
DGENRE=Rhythm and Blues
TTITLE0=Someday Baby (Worried Life Blues)
TTITLE1=Low Society
TTITLE2=It Should Have Been Me
TTITLE3=Losing Hand
TTITLE4=Heartbreaker
TTITLE5=Sinner's Prayer
TTITLE6=Mess Around
TTITLE7=Funny But I Still Love You
TTITLE8=Feelin' Sad
TTITLE9=I Wonder Who
TTITLE10=Don't You Know
TTITLE11=Nobody Cares
TTITLE12=Ray's Blues
TTITLE13=Mr. Charles' Blues
TTITLE14=Blackjack
TTITLE15=I Got a Woman
TTITLE16=Greenbacks
TTITLE17=Come Back Baby
EXTD=
EXTT0=
EXTT1=
EXTT2=
EXTT3=
EXTT4=
EXTT5=
EXTT6=
EXTT7=
EXTT8=
EXTT9=
EXTT10=
EXTT11=
EXTT12=
EXTT13=
EXTT14=
EXTT15=
EXTT16=
EXTT17=
PLAYORDER=
